<svg width="393" height="101" viewBox="0 0 393 101" fill="none" xmlns="http://www.w3.org/2000/svg">
<path d="M103.336 0H392.805L299.096 101H0L103.336 0Z" fill="black"/>
<path d="M101.435 30.5H105.285V51.5H111.62V55H101.435V30.5ZM113.466 30.5H123.966V34H117.316V40.475H122.601V43.975H117.316V51.5H123.966V55H113.466V30.5ZM131.746 55.35C129.856 55.35 128.409 54.8133 127.406 53.74C126.403 52.6667 125.901 51.15 125.901 49.19V36.31C125.901 34.35 126.403 32.8333 127.406 31.76C128.409 30.6867 129.856 30.15 131.746 30.15C133.636 30.15 135.083 30.6867 136.086 31.76C137.089 32.8333 137.591 34.35 137.591 36.31V49.19C137.591 51.15 137.089 52.6667 136.086 53.74C135.083 54.8133 133.636 55.35 131.746 55.35ZM131.746 51.85C133.076 51.85 133.741 51.045 133.741 49.435V36.065C133.741 34.455 133.076 33.65 131.746 33.65C130.416 33.65 129.751 34.455 129.751 36.065V49.435C129.751 51.045 130.416 51.85 131.746 51.85ZM104.9 85.25C103.583 85.25 102.575 84.875 101.875 84.125C101.192 83.375 100.85 82.3167 100.85 80.95V71.55C100.85 70.1833 101.192 69.125 101.875 68.375C102.575 67.625 103.583 67.25 104.9 67.25C106.217 67.25 107.217 67.625 107.9 68.375C108.6 69.125 108.95 70.1833 108.95 71.55V73.4H106.35V71.375C106.35 70.2917 105.892 69.75 104.975 69.75C104.058 69.75 103.6 70.2917 103.6 71.375V81.15C103.6 82.2167 104.058 82.75 104.975 82.75C105.892 82.75 106.35 82.2167 106.35 81.15V78.475H108.95V80.95C108.95 82.3167 108.6 83.375 107.9 84.125C107.217 84.875 106.217 85.25 104.9 85.25ZM110.595 67.5H118.095V70H113.345V74.625H117.12V77.125H113.345V82.5H118.095V85H110.595V67.5ZM119.677 67.5H123.127L125.802 77.975H125.852V67.5H128.302V85H125.477L122.177 72.225H122.127V85H119.677V67.5ZM132.496 70H129.621V67.5H138.121V70H135.246V85H132.496V70ZM139.453 67.5H143.528C144.944 67.5 145.978 67.8333 146.628 68.5C147.278 69.15 147.603 70.1583 147.603 71.525V72.6C147.603 74.4167 147.003 75.5667 145.803 76.05V76.1C146.469 76.3 146.936 76.7083 147.203 77.325C147.486 77.9417 147.628 78.7667 147.628 79.8V82.875C147.628 83.375 147.644 83.7833 147.678 84.1C147.711 84.4 147.794 84.7 147.928 85H145.128C145.028 84.7167 144.961 84.45 144.928 84.2C144.894 83.95 144.878 83.5 144.878 82.85V79.65C144.878 78.85 144.744 78.2917 144.478 77.975C144.228 77.6583 143.786 77.5 143.153 77.5H142.203V85H139.453V67.5ZM143.203 75C143.753 75 144.161 74.8583 144.428 74.575C144.711 74.2917 144.853 73.8167 144.853 73.15V71.8C144.853 71.1667 144.736 70.7083 144.503 70.425C144.286 70.1417 143.936 70 143.453 70H142.203V75H143.203ZM153.511 85.25C152.161 85.25 151.127 84.8667 150.411 84.1C149.694 83.3333 149.336 82.25 149.336 80.85V71.65C149.336 70.25 149.694 69.1667 150.411 68.4C151.127 67.6333 152.161 67.25 153.511 67.25C154.861 67.25 155.894 67.6333 156.611 68.4C157.327 69.1667 157.686 70.25 157.686 71.65V80.85C157.686 82.25 157.327 83.3333 156.611 84.1C155.894 84.8667 154.861 85.25 153.511 85.25ZM153.511 82.75C154.461 82.75 154.936 82.175 154.936 81.025V71.475C154.936 70.325 154.461 69.75 153.511 69.75C152.561 69.75 152.086 70.325 152.086 71.475V81.025C152.086 82.175 152.561 82.75 153.511 82.75ZM165.674 67.5H169.399L172.249 85H169.499L168.999 81.525V81.575H165.874L165.374 85H162.824L165.674 67.5ZM168.674 79.2L167.449 70.55H167.399L166.199 79.2H168.674ZM177.535 85.25C176.201 85.25 175.185 84.875 174.485 84.125C173.785 83.3583 173.435 82.2667 173.435 80.85V67.5H176.185V81.05C176.185 81.65 176.301 82.0833 176.535 82.35C176.785 82.6167 177.135 82.75 177.585 82.75C178.035 82.75 178.376 82.6167 178.61 82.35C178.86 82.0833 178.985 81.65 178.985 81.05V67.5H181.635V80.85C181.635 82.2667 181.285 83.3583 180.585 84.125C179.885 84.875 178.868 85.25 177.535 85.25ZM185.743 70H182.868V67.5H191.368V70H188.493V85H185.743V70ZM196.577 85.25C195.227 85.25 194.194 84.8667 193.477 84.1C192.76 83.3333 192.402 82.25 192.402 80.85V71.65C192.402 70.25 192.76 69.1667 193.477 68.4C194.194 67.6333 195.227 67.25 196.577 67.25C197.927 67.25 198.96 67.6333 199.677 68.4C200.394 69.1667 200.752 70.25 200.752 71.65V80.85C200.752 82.25 200.394 83.3333 199.677 84.1C198.96 84.8667 197.927 85.25 196.577 85.25ZM196.577 82.75C197.527 82.75 198.002 82.175 198.002 81.025V71.475C198.002 70.325 197.527 69.75 196.577 69.75C195.627 69.75 195.152 70.325 195.152 71.475V81.025C195.152 82.175 195.627 82.75 196.577 82.75ZM202.612 67.5H206.537L208.287 80.025H208.337L210.087 67.5H214.012V85H211.412V71.75H211.362L209.362 85H207.062L205.062 71.75H205.012V85H202.612V67.5ZM220.039 85.25C218.689 85.25 217.656 84.8667 216.939 84.1C216.222 83.3333 215.864 82.25 215.864 80.85V71.65C215.864 70.25 216.222 69.1667 216.939 68.4C217.656 67.6333 218.689 67.25 220.039 67.25C221.389 67.25 222.422 67.6333 223.139 68.4C223.856 69.1667 224.214 70.25 224.214 71.65V80.85C224.214 82.25 223.856 83.3333 223.139 84.1C222.422 84.8667 221.389 85.25 220.039 85.25ZM220.039 82.75C220.989 82.75 221.464 82.175 221.464 81.025V71.475C221.464 70.325 220.989 69.75 220.039 69.75C219.089 69.75 218.614 70.325 218.614 71.475V81.025C218.614 82.175 219.089 82.75 220.039 82.75ZM228.126 70H225.251V67.5H233.751V70H230.876V85H228.126V70ZM235.083 67.5H237.833V85H235.083V67.5ZM239.167 67.5H241.942L243.742 81.075H243.792L245.592 67.5H248.117L245.467 85H241.817L239.167 67.5ZM253.364 85.25C252.014 85.25 250.981 84.8667 250.264 84.1C249.548 83.3333 249.189 82.25 249.189 80.85V71.65C249.189 70.25 249.548 69.1667 250.264 68.4C250.981 67.6333 252.014 67.25 253.364 67.25C254.714 67.25 255.748 67.6333 256.464 68.4C257.181 69.1667 257.539 70.25 257.539 71.65V80.85C257.539 82.25 257.181 83.3333 256.464 84.1C255.748 84.8667 254.714 85.25 253.364 85.25ZM253.364 82.75C254.314 82.75 254.789 82.175 254.789 81.025V71.475C254.789 70.325 254.314 69.75 253.364 69.75C252.414 69.75 251.939 70.325 251.939 71.475V81.025C251.939 82.175 252.414 82.75 253.364 82.75Z" fill="white"/>
</svg>
